<svg width="20" height="20" viewBox="0 0 20 20" fill="none" xmlns="http://www.w3.org/2000/svg">
<path d="M11.0861 9.99732L19.7715 1.30907C19.9138 1.16437 19.9932 0.969287 19.9924 0.766306C19.9916 0.563326 19.9106 0.368894 19.7671 0.225363C19.6236 0.0818329 19.4293 0.000832907 19.2263 6.38754e-06C19.0234 -0.000820131 18.8284 0.078594 18.6838 0.220951L9.99831 8.90921L1.31286 0.220951C1.16821 0.078594 0.973191 -0.000820131 0.770276 6.38754e-06C0.56736 0.000832907 0.372991 0.0818329 0.229507 0.225363C0.0860231 0.368894 0.00504862 0.563326 0.00422237 0.766306C0.00339612 0.969287 0.0827852 1.16437 0.225096 1.30907L8.91054 9.99732L0.225096 18.6856C0.0808495 18.83 -0.000120076 19.0259 1.33658e-07 19.2301C0.000120343 19.4343 0.0813201 19.63 0.225737 19.7743C0.370153 19.9186 0.565956 19.9996 0.770072 19.9995C0.974188 19.9994 1.1699 19.9182 1.31414 19.7737L9.99959 11.0854L18.685 19.7737C18.7565 19.8454 18.8414 19.9023 18.9349 19.9412C19.0284 19.98 19.1286 20 19.2299 20C19.3311 20 19.4314 19.98 19.5249 19.9412C19.6184 19.9023 19.7033 19.8454 19.7747 19.7737C19.919 19.6294 20 19.4337 20 19.2296C20 19.0256 19.919 18.8299 19.7747 18.6856L11.0893 9.99732H11.0861Z" fill="white" fill-opacity="0.5"/>
</svg>
