<svg viewBox="0 0 12 15" fill="none" xmlns="http://www.w3.org/2000/svg">
<path d="M6.05609 0.0175781C4.09421 0.0175781 2.49809 1.58914 2.49809 3.52085V5.62281H1.78648C1.40903 5.62281 1.04703 5.77044 0.780128 6.03324C0.513225 6.29604 0.363281 6.65246 0.363281 7.02411V12.6293C0.363281 13.001 0.513225 13.3574 0.780128 13.6202C1.04703 13.883 1.40903 14.0307 1.78648 14.0307H10.3257C10.7032 14.0307 11.0652 13.883 11.3321 13.6202C11.599 13.3574 11.7489 13.001 11.7489 12.6293V7.02411C11.7489 6.65246 11.599 6.29604 11.3321 6.03324C11.0652 5.77044 10.7032 5.62281 10.3257 5.62281H9.6141V3.52085C9.6141 1.58914 8.01798 0.0175781 6.05609 0.0175781ZM3.92129 3.52085C3.92129 2.36197 4.8791 1.41889 6.05609 1.41889C7.23308 1.41889 8.1909 2.36197 8.1909 3.52085V5.62281H3.92129V3.52085ZM6.76769 11.034V12.6293H5.34449V11.034C5.0957 10.8937 4.89594 10.6825 4.77153 10.4281C4.64712 10.1738 4.60392 9.88835 4.64761 9.60937C4.6913 9.33038 4.81984 9.07099 5.01627 8.86538C5.21271 8.65978 5.46782 8.51762 5.74797 8.45765C5.95607 8.41221 6.17187 8.41338 6.37945 8.46107C6.58703 8.50875 6.78108 8.60173 6.94727 8.73315C7.11346 8.86457 7.24755 9.03107 7.33964 9.22035C7.43172 9.40963 7.47945 9.61685 7.47929 9.82673C7.47889 10.0718 7.41289 10.3124 7.28797 10.5243C7.16304 10.7363 6.98359 10.912 6.76769 11.034Z" fill="white" fill-opacity="0.75"/>
</svg>
