<svg width="29" height="24" viewBox="0 0 29 24" fill="none" xmlns="http://www.w3.org/2000/svg">
<path d="M3.43155 24C7.13227 24 9.91338 20.8015 11.5731 18.274C11.3712 18.8332 11.2591 19.3923 11.2591 19.9292C11.2591 21.4054 12.1114 22.4566 13.7935 22.4566C16.1036 22.4566 18.5708 20.4436 19.8492 18.274C19.7595 18.5871 19.7146 18.8779 19.7146 19.1463C19.7146 20.1752 20.2977 20.8239 21.4865 20.8239C25.2321 20.8239 29 14.2255 29 8.45481C29 3.95899 26.7123 0 20.9706 0C10.8778 0 0 12.2572 0 20.1752C0 23.2842 1.68214 24 3.43155 24ZM17.4942 7.96274C17.4942 6.84438 18.1222 6.06153 19.0417 6.06153C19.9389 6.06153 20.5669 6.84438 20.5669 7.96274C20.5669 9.0811 19.9389 9.8863 19.0417 9.8863C18.1222 9.8863 17.4942 9.0811 17.4942 7.96274ZM22.2939 7.96274C22.2939 6.84438 22.9219 6.06153 23.8414 6.06153C24.7386 6.06153 25.3666 6.84438 25.3666 7.96274C25.3666 9.0811 24.7386 9.8863 23.8414 9.8863C22.9219 9.8863 22.2939 9.0811 22.2939 7.96274Z" fill="#AB9FF2"/>
</svg>
