<svg viewBox="0 0 93 74" fill="none" xmlns="http://www.w3.org/2000/svg">
<path d="M46.7652 53.3547C54.0138 53.3547 59.8898 47.4786 59.8898 40.2301C59.8898 32.9816 54.0138 27.1055 46.7652 27.1055C39.5167 27.1055 33.6406 32.9816 33.6406 40.2301C33.6406 47.4786 39.5167 53.3547 46.7652 53.3547Z" fill="#544848"/>
<path d="M87.7786 13.9801H70.7577C70.1424 13.9801 69.3796 13.5822 68.7849 12.9547L63.1905 4.17763C60.9142 0.855468 59.8888 0.855469 56.1975 0.855469H37.3309C33.6396 0.855469 32.4092 0.855469 30.3441 4.17968L24.7436 12.9547C24.2884 13.451 23.6485 13.9801 22.9759 13.9801V10.6989C22.9759 10.2638 22.803 9.84653 22.4954 9.53886C22.1877 9.23119 21.7704 9.05835 21.3353 9.05835H13.1324C12.6973 9.05835 12.28 9.23119 11.9724 9.53886C11.6647 9.84653 11.4919 10.2638 11.4919 10.6989V13.9801H5.74985C4.44453 13.9801 3.19267 14.4986 2.26967 15.4216C1.34666 16.3446 0.828125 17.5965 0.828125 18.9018V68.1191C0.828125 69.4244 1.34666 70.6762 2.26967 71.5992C3.19267 72.5222 4.44453 73.0408 5.74985 73.0408H87.7786C89.084 73.0408 90.3358 72.5222 91.2588 71.5992C92.1818 70.6762 92.7004 69.4244 92.7004 68.1191V18.9018C92.7004 17.5965 92.1818 16.3446 91.2588 15.4216C90.3358 14.4986 89.084 13.9801 87.7786 13.9801ZM47.6891 59.8957C43.7211 60.0821 39.7894 59.0637 36.4108 56.9743C33.0323 54.885 30.3648 51.8224 28.7589 48.189C27.153 44.5557 26.6838 40.5215 27.413 36.6166C28.1423 32.7116 30.0357 29.1186 32.8447 26.3097C35.6536 23.5008 39.2466 21.6073 43.1515 20.8781C47.0564 20.1489 51.0906 20.618 54.724 22.2239C58.3574 23.8298 61.4199 26.4973 63.5093 29.8759C65.5986 33.2545 66.617 37.1861 66.4306 41.1542C66.1956 46.0489 64.1456 50.6805 60.6805 54.1456C57.2155 57.6107 52.5838 59.6607 47.6891 59.8957Z" fill="#544848"/>
</svg>
