<svg width="92" height="73" viewBox="0 0 92 73" fill="none" xmlns="http://www.w3.org/2000/svg">
<path d="M45.9371 52.4992C53.1856 52.4992 59.0617 46.6231 59.0617 39.3746C59.0617 32.1261 53.1856 26.25 45.9371 26.25C38.6886 26.25 32.8125 32.1261 32.8125 39.3746C32.8125 46.6231 38.6886 52.4992 45.9371 52.4992Z" fill="white" fill-opacity="0.35"/>
<path d="M86.9505 13.1246H69.9295C69.3143 13.1246 68.5514 12.7268 67.9567 12.0992L62.3624 3.32216C60.0861 -7.82287e-07 59.0607 0 55.3694 0H36.5028C32.8115 0 31.5811 0 29.516 3.32422L23.9155 12.0992C23.4602 12.5955 22.8204 13.1246 22.1478 13.1246V9.84345C22.1478 9.40834 21.9749 8.99106 21.6673 8.68339C21.3596 8.37572 20.9423 8.20288 20.5072 8.20288H12.3043C11.8692 8.20288 11.4519 8.37572 11.1443 8.68339C10.8366 8.99106 10.6637 9.40834 10.6637 9.84345V13.1246H4.92173C3.6164 13.1246 2.36454 13.6431 1.44154 14.5661C0.518538 15.4891 0 16.741 0 18.0463V67.2636C0 68.5689 0.518538 69.8208 1.44154 70.7438C2.36454 71.6668 3.6164 72.1853 4.92173 72.1853H86.9505C88.2558 72.1853 89.5077 71.6668 90.4307 70.7438C91.3537 69.8208 91.8722 68.5689 91.8722 67.2636V18.0463C91.8722 16.741 91.3537 15.4891 90.4307 14.5661C89.5077 13.6431 88.2558 13.1246 86.9505 13.1246ZM46.861 59.0402C42.8929 59.2266 38.9613 58.2082 35.5827 56.1189C32.2041 54.0295 29.5366 50.9669 27.9308 47.3336C26.3249 43.7002 25.8557 39.666 26.5849 35.7611C27.3141 31.8562 29.2076 28.2632 32.0165 25.4542C34.8255 22.6453 38.4185 20.7518 42.3234 20.0226C46.2283 19.2934 50.2625 19.7626 53.8959 21.3685C57.5292 22.9743 60.5918 25.6418 62.6812 29.0204C64.7705 32.399 65.7889 36.3306 65.6025 40.2987C65.3675 45.1934 63.3175 49.825 59.8524 53.2901C56.3873 56.7552 51.7557 58.8052 46.861 59.0402Z" fill="white" fill-opacity="0.35"/>
</svg>
