<svg width="10" height="17" viewBox="0 0 10 17" fill="none" xmlns="http://www.w3.org/2000/svg">
<path d="M6.66667 7.65H5.83333V4.25H7.5C7.72101 4.25 7.93297 4.33955 8.08926 4.49896C8.24554 4.65837 8.33333 4.87457 8.33333 5.1C8.33333 5.32543 8.42113 5.54164 8.57741 5.70104C8.73369 5.86045 8.94565 5.95 9.16667 5.95C9.38768 5.95 9.59964 5.86045 9.75592 5.70104C9.9122 5.54164 10 5.32543 10 5.1C10 4.4237 9.73661 3.7751 9.26777 3.29688C8.79893 2.81866 8.16304 2.55 7.5 2.55H5.83333V0.85C5.83333 0.624566 5.74554 0.408365 5.58926 0.248959C5.43297 0.0895533 5.22101 0 5 0C4.77899 0 4.56702 0.0895533 4.41074 0.248959C4.25446 0.408365 4.16667 0.624566 4.16667 0.85V2.55H3.33333C2.44928 2.55 1.60143 2.90821 0.976311 3.54584C0.351189 4.18346 0 5.04826 0 5.95C0 6.85174 0.351189 7.71654 0.976311 8.35416C1.60143 8.99179 2.44928 9.35 3.33333 9.35H4.16667V12.75H2.5C2.27899 12.75 2.06702 12.6604 1.91074 12.501C1.75446 12.3416 1.66667 12.1254 1.66667 11.9C1.66667 11.6746 1.57887 11.4584 1.42259 11.299C1.26631 11.1396 1.05435 11.05 0.833333 11.05C0.61232 11.05 0.400358 11.1396 0.244078 11.299C0.0877975 11.4584 0 11.6746 0 11.9C0 12.5763 0.263392 13.2249 0.732233 13.7031C1.20107 14.1813 1.83696 14.45 2.5 14.45H4.16667V16.15C4.16667 16.3754 4.25446 16.5916 4.41074 16.751C4.56702 16.9104 4.77899 17 5 17C5.22101 17 5.43297 16.9104 5.58926 16.751C5.74554 16.5916 5.83333 16.3754 5.83333 16.15V14.45H6.66667C7.55072 14.45 8.39857 14.0918 9.02369 13.4542C9.64881 12.8165 10 11.9517 10 11.05C10 10.1483 9.64881 9.28346 9.02369 8.64584C8.39857 8.00821 7.55072 7.65 6.66667 7.65ZM4.16667 7.65H3.33333C2.89131 7.65 2.46738 7.47089 2.15482 7.15208C1.84226 6.83327 1.66667 6.40087 1.66667 5.95C1.66667 5.49913 1.84226 5.06673 2.15482 4.74792C2.46738 4.42911 2.89131 4.25 3.33333 4.25H4.16667V7.65ZM6.66667 12.75H5.83333V9.35H6.66667C7.10869 9.35 7.53262 9.52911 7.84518 9.84792C8.15774 10.1667 8.33333 10.5991 8.33333 11.05C8.33333 11.5009 8.15774 11.9333 7.84518 12.2521C7.53262 12.5709 7.10869 12.75 6.66667 12.75Z" fill="white"/>
</svg>
