<svg xmlns="http://www.w3.org/2000/svg" viewBox="0 0 48 48" xmlns:xlink="http://www.w3.org/1999/xlink" xml:space="preserve" width="100%" height="100%"><g xmlns="http://www.w3.org/2000/svg" fill="none" fill-rule="evenodd" transform="rotate(-90 22.857 19.429)scale(2.28571)"><path stroke="whitef" stroke-linecap="round" stroke-linejoin="round" d="M2.5.5h3a2 2 0 0 1 2 2v13a2 2 0 0 1-2 2h-3a2 2 0 0 1-2-2v-13a2 2 0 0 1 2-2"></path><circle cx="4" cy="4" r="1" fill="whitef"></circle><path stroke="whitef" stroke-linecap="round" stroke-linejoin="round" d="m9.506.5 3 .01a2 2 0 0 1 1.994 2V15.5a2 2 0 0 1-2.006 2l-3-.01a2 2 0 0 1-1.994-2V2.5a2 2 0 0 1 2.006-2"></path><circle cx="11" cy="4" r="1" fill="whitef"></circle></g></svg>