<svg width="30" height="30" viewBox="0 0 30 30" fill="none" xmlns="http://www.w3.org/2000/svg">
<path d="M7.10845 1.0957H22.886C26.2078 1.0957 28.9006 3.78858 28.9006 7.1104V22.8879C28.9006 26.2098 26.2078 28.9026 22.886 28.9026H7.10845C3.78663 28.9026 1.09375 26.2098 1.09375 22.8879V7.1104C1.09375 3.78858 3.78663 1.0957 7.10845 1.0957Z" fill="#FFEF46" stroke="#EEDA0F" stroke-width="2"/>
<path d="M15.9108 16.2254C15.3036 16.0309 15.1237 15.2589 15.5822 14.8159C15.8069 14.5988 16.1333 14.5238 16.4303 14.621L18.5187 15.3045C20.2017 15.8655 21.0433 16.894 21.0433 18.3432C21.0433 19.4419 20.6225 20.1665 19.781 21.1015C19.7028 21.1868 19.5613 21.1199 19.5777 21.0053L19.6174 20.7275C19.9913 18.3432 19.2902 17.3148 16.976 16.5667L15.9108 16.2254ZM11.1089 7.68423C11.1089 7.66123 11.1314 7.64499 11.1532 7.65226L16.659 9.48753C17.3224 9.70864 17.5119 10.5563 17.006 11.0389C16.7574 11.276 16.3982 11.3563 16.0723 11.2477L12.9555 10.2087C11.6933 9.78797 11.2725 9.1101 11.1089 7.68423ZM12.1954 20.0577C11.5018 19.8066 11.3136 18.914 11.8469 18.4043C12.112 18.1508 12.4952 18.064 12.8438 18.1783L15.2697 18.9744C15.5568 19.0687 15.8093 19.1685 16.0293 19.2791C17.4243 19.9805 15.7797 21.3552 14.3116 20.8237L12.1954 20.0577ZM8.67787 12.7332C8.67787 11.9816 9.70154 12.0716 10.3403 12.4676C10.6877 12.683 11.1044 12.8754 11.5997 13.0371L12.7424 13.4144C13.3492 13.6148 13.5259 14.3881 13.0664 14.8321C12.84 15.0508 12.5112 15.1264 12.2121 15.0286L10.2674 14.3928C9.14537 14.0189 8.67787 13.4578 8.67787 12.7332ZM13.1935 24.0051C14.9716 24.6347 16.9565 24.4085 18.49 23.3101C22.0388 20.7683 23.9184 18.7806 23.9184 16.4265C23.9184 14.5331 22.7963 13.4812 20.3186 12.6631C19.4674 12.3758 19.2247 11.2878 19.8732 10.6659L23.0191 7.6494C23.3232 7.35779 23.3362 6.87582 23.0482 6.56825C22.7645 6.26518 22.2914 6.24189 21.9793 6.51562L21.5837 6.86258C21.2343 7.16895 20.749 7.26785 20.3076 7.12263L15.7112 5.61046C14.498 5.21132 13.1609 5.16636 12.0613 5.816C10.3593 6.82152 8.81812 8.39824 8.81812 9.97497C8.81812 10.4063 8.64631 10.8445 8.28563 11.0811C6.89402 11.9939 6.317 12.8811 6.317 13.9487C6.317 15.0941 6.92474 16.2395 8.86487 16.8706C9.56603 17.1043 9.76783 17.9994 9.23481 18.5114L5.62035 21.9831C5.31977 22.2718 5.3071 22.7485 5.59193 23.0528C5.87711 23.3574 6.35433 23.3758 6.66212 23.0941L7.13921 22.6573C7.52512 22.304 8.07442 22.1924 8.56761 22.367L13.1935 24.0051Z" fill="#02050A"/>
</svg>
