<svg width="26" height="9" viewBox="0 0 26 9" fill="none" xmlns="http://www.w3.org/2000/svg">
<g clip-path="url(#clip0_151_716)">
<path d="M23.4 9.30078H1.8C1.32261 9.30078 0.864773 9.11114 0.527208 8.77357C0.189642 8.43601 0 7.97817 0 7.50078V2.10078C0 1.62339 0.189642 1.16555 0.527208 0.827989C0.864773 0.490424 1.32261 0.300781 1.8 0.300781H23.4C23.8774 0.300781 24.3352 0.490424 24.6728 0.827989C25.0104 1.16555 25.2 1.62339 25.2 2.10078V7.50078C25.2 7.97817 25.0104 8.43601 24.6728 8.77357C24.3352 9.11114 23.8774 9.30078 23.4 9.30078ZM1.8 2.10078V7.50078H23.4V2.10078H1.8Z" fill="white"/>
<path d="M3.60156 3.90234H16.2016V5.70234H3.60156V3.90234Z" fill="white"/>
</g>
<defs>
<clipPath id="clip0_151_716">
<rect width="25.2" height="9" fill="white"/>
</clipPath>
</defs>
</svg>
