<svg width="64" height="50" viewBox="0 0 64 50" fill="none" xmlns="http://www.w3.org/2000/svg">
<path d="M57.1345 34.6124C58.7376 32.7612 59.6261 30.3865 59.6364 27.9252C59.6364 25.1931 58.5636 22.5728 56.6542 20.6409C54.7447 18.709 52.1549 17.6237 49.4545 17.6237C46.7542 17.6237 44.1644 18.709 42.2549 20.6409C40.3455 22.5728 39.2727 25.1931 39.2727 27.9252C39.283 30.3865 40.1714 32.7612 41.7745 34.6124C39.6803 35.9265 37.9511 37.7584 36.75 39.9356C35.5489 42.1127 34.9153 44.5634 34.9091 47.0567C34.9091 47.8373 35.2156 48.586 35.7611 49.1379C36.3067 49.6899 37.0466 50 37.8182 50C38.5897 50 39.3297 49.6899 39.8752 49.1379C40.4208 48.586 40.7273 47.8373 40.7273 47.0567C40.7273 44.7149 41.6468 42.4689 43.2834 40.813C44.9201 39.1571 47.1399 38.2268 49.4545 38.2268C51.7692 38.2268 53.989 39.1571 55.6257 40.813C57.2623 42.4689 58.1818 44.7149 58.1818 47.0567C58.1818 47.8373 58.4883 48.586 59.0339 49.1379C59.5794 49.6899 60.3194 50 61.0909 50C61.8624 50 62.6024 49.6899 63.1479 49.1379C63.6935 48.586 64 47.8373 64 47.0567C63.9937 44.5634 63.3602 42.1127 62.1591 39.9356C60.958 37.7584 59.2288 35.9265 57.1345 34.6124ZM49.4545 32.3402C48.5915 32.3402 47.7478 32.0812 47.0302 31.5961C46.3126 31.111 45.7533 30.4215 45.4231 29.6147C45.0928 28.808 45.0064 27.9203 45.1748 27.0639C45.3431 26.2075 45.7587 25.4208 46.369 24.8034C46.9793 24.1859 47.7568 23.7654 48.6032 23.5951C49.4497 23.4247 50.3271 23.5122 51.1244 23.8463C51.9218 24.1805 52.6033 24.7464 53.0828 25.4724C53.5623 26.1984 53.8182 27.052 53.8182 27.9252C53.8182 29.0961 53.3584 30.2191 52.5401 31.0471C51.7218 31.875 50.6119 32.3402 49.4545 32.3402ZM16.8524 10.8747L22.6705 16.7613C23.2192 17.2974 23.9541 17.5941 24.7168 17.5874C25.4796 17.5807 26.2092 17.2711 26.7486 16.7254C27.2879 16.1797 27.5939 15.4415 27.6005 14.6698C27.6071 13.898 27.3139 13.1545 26.784 12.5994L25.9316 11.737H38.0684L37.216 12.5994C36.9382 12.8709 36.7165 13.1957 36.5641 13.5548C36.4116 13.9139 36.3314 14.3001 36.328 14.6909C36.3246 15.0818 36.3982 15.4693 36.5445 15.831C36.6908 16.1928 36.9068 16.5214 37.1799 16.7977C37.4531 17.0741 37.7779 17.2927 38.1354 17.4406C38.4929 17.5886 38.876 17.6631 39.2623 17.6597C39.6485 17.6563 40.0303 17.5751 40.3852 17.4209C40.7401 17.2666 41.0611 17.0424 41.3295 16.7613L47.1476 10.8747C47.6895 10.3208 47.9934 9.57302 47.9934 8.79374C47.9934 8.01447 47.6895 7.26667 47.1476 6.71283L41.3295 0.826221C40.7808 0.290075 40.0459 -0.00659482 39.2832 0.000111264C38.5204 0.00681734 37.7908 0.316362 37.2514 0.862075C36.7121 1.40779 36.4061 2.146 36.3995 2.91773C36.3929 3.68945 36.6861 4.43294 37.216 4.98805L38.0684 5.85044H25.9316L26.784 4.98805C27.3139 4.43294 27.6071 3.68945 27.6005 2.91773C27.5939 2.146 27.2879 1.40779 26.7486 0.862075C26.2092 0.316362 25.4796 0.00681734 24.7168 0.000111264C23.9541 -0.00659482 23.2192 0.290075 22.6705 0.826221L16.8524 6.71283C16.3105 7.26667 16.0066 8.01447 16.0066 8.79374C16.0066 9.57302 16.3105 10.3208 16.8524 10.8747ZM22.2255 34.6124C23.8286 32.7612 24.717 30.3865 24.7273 27.9252C24.7273 25.1931 23.6545 22.5728 21.7451 20.6409C19.8356 18.709 17.2458 17.6237 14.5455 17.6237C11.8451 17.6237 9.25528 18.709 7.34582 20.6409C5.43636 22.5728 4.36364 25.1931 4.36364 27.9252C4.37394 30.3865 5.26236 32.7612 6.86545 34.6124C4.77117 35.9265 3.04201 37.7584 1.8409 39.9356C0.639785 42.1127 0.00625733 44.5634 0 47.0567C0 47.8373 0.306493 48.586 0.852053 49.1379C1.39761 49.6899 2.13755 50 2.90909 50C3.68063 50 4.42057 49.6899 4.96613 49.1379C5.51169 48.586 5.81818 47.8373 5.81818 47.0567C5.81818 44.7149 6.73766 42.4689 8.37434 40.813C10.011 39.1571 12.2308 38.2268 14.5455 38.2268C16.8601 38.2268 19.0799 39.1571 20.7166 40.813C22.3532 42.4689 23.2727 44.7149 23.2727 47.0567C23.2727 47.8373 23.5792 48.586 24.1248 49.1379C24.6703 49.6899 25.4103 50 26.1818 50C26.9534 50 27.6933 49.6899 28.2389 49.1379C28.7844 48.586 29.0909 47.8373 29.0909 47.0567C29.0847 44.5634 28.4511 42.1127 27.25 39.9356C26.0489 37.7584 24.3197 35.9265 22.2255 34.6124ZM14.5455 32.3402C13.6824 32.3402 12.8387 32.0812 12.1211 31.5961C11.4036 31.111 10.8443 30.4215 10.514 29.6147C10.1837 28.808 10.0973 27.9203 10.2657 27.0639C10.434 26.2075 10.8496 25.4208 11.4599 24.8034C12.0702 24.1859 12.8477 23.7654 13.6942 23.5951C14.5406 23.4247 15.418 23.5122 16.2153 23.8463C17.0127 24.1805 17.6942 24.7464 18.1737 25.4724C18.6532 26.1984 18.9091 27.052 18.9091 27.9252C18.9091 29.0961 18.4494 30.2191 17.631 31.0471C16.8127 31.875 15.7028 32.3402 14.5455 32.3402Z" fill="white"/>
</svg>
