<svg viewBox="0 0 16 14" fill="none" xmlns="http://www.w3.org/2000/svg">
<path fill-rule="evenodd" clip-rule="evenodd" d="M2.92945 0.0687599L0.0119943 6.23262C0.000892556 6.25554 -0.00262552 6.28144 0.00195457 6.30652C0.00653466 6.3316 0.0189726 6.35455 0.0374496 6.37201L7.9168 13.9664C7.93918 13.9879 7.96899 14 8 14C8.03101 14 8.06082 13.9879 8.0832 13.9664L15.9626 6.37249C15.981 6.35503 15.9935 6.33208 15.998 6.307C16.0026 6.28191 15.9991 6.25602 15.988 6.23309L13.0706 0.069234C13.0611 0.0485332 13.046 0.0309969 13.0269 0.0187211C13.0079 0.00644533 12.9857 -5.07801e-05 12.9631 9.17579e-06H3.03787C3.01513 -0.000275387 2.9928 0.00606425 2.97356 0.0182633C2.95432 0.0304624 2.939 0.0479998 2.92945 0.0687599Z" fill="#50AF95"/>
<path fill-rule="evenodd" clip-rule="evenodd" d="M9.01232 6.8656C8.95575 6.86986 8.66349 6.88741 8.01155 6.88741C7.49302 6.88741 7.12486 6.87176 6.9957 6.8656C4.9918 6.77693 3.49607 6.42607 3.49607 6.00598C3.49607 5.58589 4.9918 5.23549 6.9957 5.14541V6.51615C7.12674 6.52564 7.50197 6.54792 8.02051 6.54792C8.64275 6.54792 8.95434 6.52184 9.01043 6.51663V5.14635C11.0101 5.23597 12.5025 5.58683 12.5025 6.00598C12.5025 6.42512 11.0106 6.77598 9.01043 6.86512L9.01232 6.8656ZM9.01232 5.00459V3.77798H11.803V1.90749H4.20504V3.77798H6.99522V5.00411C4.72735 5.1089 3.02185 5.56076 3.02185 6.10223C3.02185 6.6437 4.72735 7.09508 6.99522 7.20034V11.131H9.01185V7.19892C11.2745 7.09413 12.9772 6.64275 12.9772 6.10175C12.9772 5.56076 11.276 5.10937 9.01185 5.00411L9.01232 5.00459Z" fill="white"/>
</svg>
